<svg version="1.2" xmlns="http://www.w3.org/2000/svg" viewBox="165 218 175 38" width="175" height="38">
	<style>
		.s0 { opacity: .99;fill: #566161 } 
	</style>
	<path id="Path 0" fill-rule="evenodd" class="s0" d="m298.4 222.2c1.33 0.19 2.1 1.03 2.1 2.29 0 1.2-0.78 2.11-2 2.32-1.1 0.18-2.3-0.26-2.66-0.99-0.37-0.72-0.41-1.91-0.1-2.62 0.31-0.72 1.51-1.17 2.66-1zm-122.15 1.77c4.21-0.04 4.3 0.04 10.25 8.52 3.3 4.71 6.11 8.55 6.25 8.53 0.14-0.01 0.25-3.17 0.25-7.02 0-6.33-0.19-7-2-7-1.11 0-2-0.67-2-1.5 0-1.13 1.22-1.5 5-1.5 3.78 0 5 0.37 5 1.5 0 0.83-0.67 1.5-1.5 1.5-1.25 0-1.5 1.94-1.5 11.5 0 10.83-0.12 11.5-2 11.5-1.38 0-4.16-3.01-16.04-19.5l0.02 8.25c0.02 7.58 0.18 8.25 2.02 8.25 1.11 0 2 0.67 2 1.5 0 1.13-1.22 1.5-5 1.5-3.78 0-5-0.37-5-1.5 0-0.82 0.68-1.5 1.5-1.5 1.23 0 1.5-1.78 1.5-10 0-8.22-0.27-10-1.5-10-0.82 0-1.5-0.67-1.5-1.5 0-1.09 1.15-1.51 4.25-1.53zm82.58-0.01c3.14-0.03 5.33 0.55 6.67 1.76 1.1 0.99 1.89 2.58 1.75 3.54-0.14 0.96-1.04 1.86-2 2.01-0.96 0.15-2.21-0.64-2.77-1.75-0.66-1.29-2.19-2.11-4.25-2.27-2.25-0.17-3.49 0.28-4.1 1.5-0.48 0.96-1.15 3.44-1.5 5.5-0.35 2.06-0.18 5.55 0.37 7.75 0.55 2.2 1.68 4.23 2.5 4.5 0.83 0.28 2.96 0.52 4.75 0.54 1.79 0.03 3.93-0.66 4.75-1.54 1.09-1.15 1.78-1.28 2.5-0.47 0.69 0.77 0.23 1.72-1.5 3.08-1.72 1.36-3.99 1.96-7.25 1.93-3.56-0.03-5.5-0.67-7.75-2.54-1.79-1.49-3.47-4.22-4.16-6.75-0.88-3.22-0.88-5.16 0-8 0.64-2.06 2.55-4.87 4.24-6.25 2.28-1.85 4.31-2.51 7.75-2.54zm-47.88 6.04c2.99 0 4.71 0.66 6.55 2.5q2.5 2.5 2.25 5.25c-0.24 2.62-0.52 2.76-6 3-3.16 0.14-5.75 0.7-5.75 1.25 0 0.55 0.45 1.9 1 3q1 2 4 2c1.65 0 3.27-0.56 3.61-1.25 0.47-0.99 0.84-0.97 1.75 0.07 0.88 1.01 0.68 1.65-0.86 2.76-1.1 0.8-3.91 1.45-6.25 1.44-3.19-0.02-4.88-0.65-6.75-2.52-2.02-2.02-2.49-3.46-2.45-7.55 0.03-3.94 0.57-5.58 2.45-7.5 1.77-1.8 3.48-2.45 6.45-2.45zm-2.95 7c0 0.55 1.35 1 3 1 1.65 0 3-0.45 3-1 0-0.55-0.22-1.67-0.5-2.5-0.27-0.82-1.36-1.5-2.42-1.5-1.05 0-2.17 0.68-2.5 1.5-0.32 0.83-0.58 1.95-0.58 2.5zm20-7c3.3 0 6.01 0.34 6.02 0.75 0.01 0.41-0.56 1.29-1.25 1.96-1.02 0.97-0.98 1.51 0.23 2.76 1.05 1.09 1.88 1.25 2.75 0.54 0.69-0.56 1.03-2.13 0.75-3.51-0.47-2.33-0.23-2.5 3.5-2.5 2.2 0 4 0.45 4 1 0 0.55-0.79 1.39-1.75 1.87-0.96 0.48-2.54 2.06-3.5 3.5-1.71 2.57-1.68 2.73 1 6.67 1.51 2.22 3.31 4.24 4 4.5 0.69 0.25 1.25 0.91 1.25 1.46 0 0.56-2.67 1-6 1-4.67 0-6-0.33-6-1.5 0-0.82 0.56-1.66 1.25-1.85 0.87-0.25 0.64-1.02-0.75-2.53-1.8-1.97-2.15-2.03-3.5-0.63-1.23 1.27-1.27 1.9-0.25 3.53 0.69 1.09 1.25 2.21 1.25 2.48 0 0.28-2.02 0.5-4.5 0.5-3.33 0-4.5-0.39-4.5-1.5 0-0.82 0.56-1.5 1.25-1.5 0.69 0 2.49-1.58 6.75-7l-2.75-3.5c-1.51-1.92-3.31-3.5-4-3.5-0.69 0-1.25-0.67-1.25-1.5 0-1.17 1.33-1.5 6-1.5zm52.2 0.03c2.37 0.02 5.01 0.58 5.89 1.25 0.87 0.67 2.11 2.23 2.75 3.47 0.64 1.24 1.16 4.05 1.16 6.25 0 2.9-0.67 4.69-2.45 6.5-1.91 1.94-3.48 2.5-7 2.5-3.52 0-5.12-0.57-7.05-2.5-2.02-2.02-2.49-3.46-2.45-7.55 0.03-3.94 0.57-5.58 2.45-7.5 1.83-1.86 3.44-2.44 6.7-2.42zm-3.2 9.97c0 2.2 0.23 4.68 0.5 5.5 0.28 0.83 1.63 1.5 3 1.5 1.38 0 2.73-0.67 3-1.5 0.28-0.82 0.5-3.3 0.5-5.5 0-2.2-0.22-4.67-0.5-5.5-0.27-0.82-1.59-1.5-2.92-1.5-1.32 0-2.67 0.68-3 1.5-0.32 0.83-0.58 3.3-0.58 5.5zm24-10v8c0 7 0.25 8.13 2 9 1.1 0.55 2.68 0.78 3.5 0.5 1.14-0.38 1.5-2.17 1.5-7.5 0-5.33-0.36-7.12-1.5-7.5-0.82-0.27-1.5-0.95-1.5-1.5 0-0.55 2.03-1 4.5-1 2.96 0 4.48 0.43 4.46 1.25-0.04 0.97 0.29 0.95 1.47-0.07 0.84-0.72 2.98-1.17 4.77-1 2.28 0.22 3.63 1.07 4.51 2.82 0.69 1.38 1.27 5.09 1.28 8.25 0 3.16 0.46 5.75 1.01 5.75 0.55 0 1 0.68 1 1.5 0 1.08-1.11 1.5-8 1.5l0.02-6.75c0.01-4.33-0.51-7.47-1.44-8.75-1.19-1.65-1.67-1.77-2.76-0.69-0.73 0.72-1.49 3.65-1.69 6.5-0.27 3.91 0.04 5.56 1.3 6.69 0.91 0.83 1.64 1.84 1.61 2.25-0.02 0.41-5.66 0.75-12.54 0.75-7.67 0-12.5-0.39-12.5-1 0-0.55 0.68-1.22 1.5-1.5 1.14-0.38 1.5-2.17 1.5-7.5 0-5.33-0.36-7.12-1.5-7.5-0.82-0.27-1.5-0.95-1.5-1.5 0-0.55 2.03-1 9-1z"/>
</svg>
