<svg width="244" height="219" viewBox="0 0 244 219" fill="none" xmlns="http://www.w3.org/2000/svg">
<path d="M239.755 135.563C223.499 194.04 157.459 229.628 92.2479 215.045C27.0636 200.466 -12.6182 141.236 3.64549 82.7624C19.894 24.279 85.9341 -11.3127 151.126 3.26649C216.333 17.8455 256.011 77.083 239.755 135.563Z" fill="#F7931A"/>
<path d="M176.989 96.1515C179.412 81.627 167.081 73.819 150.22 68.6102L155.69 48.9349L142.336 45.9502L137.011 65.107C133.5 64.3224 129.895 63.5822 126.312 62.8488L131.675 43.5658L118.328 40.5811L112.855 60.2495C109.949 59.6559 107.097 59.0692 104.328 58.4518L104.343 58.3904L85.9263 54.2663L82.3739 67.058C82.3739 67.058 92.282 69.0944 92.0727 69.2206C97.4813 70.4316 98.4587 73.6414 98.2952 76.1861L92.0651 98.6006C92.4378 98.6858 92.9209 98.8087 93.4533 98.9997C93.0083 98.9008 92.5328 98.7916 92.0422 98.6858L83.3094 130.085C82.6476 131.559 80.9703 133.769 77.1896 132.93C77.3227 133.104 67.4831 130.757 67.4831 130.757L60.8535 144.466L78.2317 148.352C81.4647 149.078 84.633 149.839 87.7518 150.555L82.2253 170.456L95.5641 173.441L101.037 153.752C104.681 154.638 108.218 155.457 111.68 156.228L106.225 175.825L119.579 178.81L125.106 158.947C147.877 162.811 165.001 161.253 172.208 142.781C178.016 127.909 171.919 119.33 159.938 113.736C168.663 111.931 175.236 106.784 176.989 96.1515ZM146.478 134.523C142.351 149.396 114.43 141.356 105.377 139.34L112.71 112.975C121.763 115.001 150.791 119.013 146.478 134.523ZM150.608 95.9366C146.843 109.465 123.604 102.592 116.065 100.907L122.714 76.9946C130.252 78.6797 154.53 81.8247 150.608 95.9366Z" fill="white"/>
</svg>
