<svg width="800" height="525" viewBox="0 0 800 525" fill="none" xmlns="http://www.w3.org/2000/svg">
<path d="M495.813 479.417C450.445 479.417 401.144 472.675 352.175 459.711C291.617 443.679 236.093 419.481 191.604 389.731L192.921 387.76C237.199 417.365 292.473 441.455 352.78 457.419C407.28 471.848 462.186 478.532 511.546 476.768L511.632 479.138C506.418 479.325 501.145 479.418 495.813 479.417Z" fill="#5F9EA0"/>
<path d="M489.02 171.496C474.285 166.696 459.132 162.232 443.975 158.22C356.761 135.131 271.028 126.933 196.042 134.52L195.803 132.161C271.068 124.552 357.094 132.761 444.582 155.931C459.782 159.956 474.982 164.431 489.755 169.246L489.02 171.496Z" fill="#5F9EA0"/>
<path d="M89.3714 355.948C53.0204 320.163 37.6714 282.83 46.1394 250.828C57.0074 209.76 105.311 181.364 178.655 172.928L178.926 175.284C106.601 183.607 59.0404 211.365 48.4354 251.44C40.1904 282.585 55.3204 319.102 91.0354 354.265L89.3714 355.948Z" fill="#5F9EA0"/>
<path d="M582.369 464.709L581.609 462.463C622.184 448.744 647.563 426.645 655.001 398.551C664.451 362.839 643.915 321.395 597.165 281.857C550.176 242.118 482.417 209.144 406.365 189.011L406.965 186.719C483.345 206.94 551.436 240.085 598.687 280.047C646.176 320.21 666.987 362.511 657.287 399.158C649.642 428.057 623.734 450.723 582.369 464.709Z" fill="#5F9EA0"/>
<path d="M222.726 400.796C222.648 400.782 222.569 400.771 222.492 400.757C222.821 400.553 223.131 400.318 223.417 400.057L222.726 400.796Z" fill="white"/>
<path d="M688.511 166.349C688.59 166.335 688.668 166.324 688.745 166.31C688.416 166.106 688.107 165.871 687.82 165.61L688.511 166.349Z" fill="white"/>
<path d="M125.371 99.7905C125.292 99.7765 125.214 99.7655 125.137 99.7515C125.466 99.5467 125.775 99.3124 126.062 99.0515L125.371 99.7905Z" fill="white"/>
<path d="M48.936 107.007C48.936 109.422 49.016 111.837 49.185 114.229C49.364 117.09 49.672 119.929 50.091 122.753C51.4931 132.253 54.1731 141.519 58.058 150.3L58.658 151.608L58.958 152.264C59.058 152.482 59.166 152.701 59.266 152.91C59.405 153.198 59.535 153.477 59.666 153.754C59.835 154.102 60.004 154.454 60.182 154.798C60.202 154.837 60.221 154.888 60.251 154.937C60.4 155.237 60.539 155.523 60.698 155.822C60.7274 155.887 60.7608 155.951 60.798 156.011C60.967 156.349 61.146 156.696 61.324 157.034C61.524 157.391 61.711 157.76 61.91 158.117C62.387 159.002 62.883 159.875 63.39 160.75C63.5387 161.009 63.691 161.267 63.847 161.525C63.986 161.763 64.125 162.002 64.274 162.24C64.374 162.399 64.474 162.568 64.574 162.727C64.733 162.996 64.892 163.253 65.061 163.522C65.428 164.108 65.806 164.694 66.174 165.28H66.184C66.353 165.549 66.531 165.816 66.71 166.08V166.09C67.236 166.885 67.783 167.679 68.329 168.464H68.336C68.3367 168.467 68.3367 168.469 68.336 168.471C68.773 169.107 69.23 169.723 69.677 170.339V170.349C69.977 170.736 70.263 171.134 70.562 171.521C70.8 171.839 71.049 172.167 71.297 172.485C71.346 172.554 71.407 172.614 71.456 172.685V172.695C71.525 172.785 71.595 172.864 71.664 172.954C72.7173 174.306 73.8033 175.627 74.922 176.918L75.101 177.126C75.16 177.195 75.23 177.265 75.29 177.344C75.39 177.454 75.479 177.562 75.578 177.672C75.677 177.782 75.767 177.89 75.866 178C81.7006 184.573 88.3163 190.408 95.566 195.375C96.53 196.04 97.513 196.683 98.496 197.312C98.745 197.471 98.996 197.63 99.241 197.779C99.31 197.828 99.39 197.879 99.459 197.928C99.598 198.008 99.728 198.087 99.859 198.177C99.99 198.267 100.118 198.336 100.259 198.415C100.785 198.743 101.322 199.061 101.859 199.379C101.988 199.458 102.128 199.538 102.259 199.617C102.39 199.696 102.528 199.766 102.659 199.845C102.659 199.855 102.659 199.855 102.669 199.855H102.679V199.865H102.689C103.356 200.253 104.031 200.63 104.716 200.997C105.083 201.197 105.461 201.397 105.839 201.597C106.693 202.064 107.558 202.511 108.422 202.938C108.73 203.087 109.048 203.238 109.356 203.395C109.615 203.514 109.872 203.644 110.131 203.762C110.21 203.801 110.28 203.831 110.349 203.872C110.567 203.972 110.776 204.072 110.995 204.172C111.233 204.282 111.472 204.39 111.695 204.5C111.964 204.619 112.221 204.739 112.495 204.848C113.488 205.295 114.495 205.722 115.495 206.129C119.091 207.604 122.765 208.877 126.502 209.944C126.671 209.993 126.849 210.044 127.028 210.093C128.628 210.54 130.238 210.947 131.858 211.315C134.689 211.971 137.547 212.507 140.431 212.925H140.451L141.485 213.074C141.515 213.074 141.544 213.084 141.585 213.084C141.585 213.094 141.585 213.094 141.595 213.084L142.737 213.233C142.763 213.241 142.79 213.245 142.817 213.243C143.174 213.292 143.543 213.333 143.9 213.372L145.062 213.491L145.956 213.581C145.982 213.59 146.009 213.594 146.036 213.591C146.305 213.611 146.572 213.64 146.841 213.66H146.88L147.58 213.719C150.351 213.937 153.133 214.037 155.955 214.037C159.005 214.037 162.034 213.918 165.025 213.66H165.055L166.972 213.481C167.141 213.461 167.3 213.451 167.472 213.432C167.502 213.432 167.541 213.422 167.572 213.422C167.621 213.412 167.672 213.412 167.731 213.402C167.758 213.403 167.785 213.4 167.811 213.392C168.029 213.372 168.248 213.343 168.476 213.323L169.221 213.233C169.47 213.203 169.721 213.164 169.966 213.133C170.025 213.123 170.076 213.123 170.135 213.113C170.314 213.093 170.492 213.064 170.671 213.033L170.93 213.003C171.109 212.973 171.277 212.954 171.456 212.924H171.466C176.917 212.141 182.298 210.929 187.559 209.301C187.837 209.211 188.116 209.132 188.393 209.042C188.403 209.042 188.413 209.032 188.423 209.032C188.503 209.002 188.592 208.983 188.672 208.952C189.417 208.714 190.152 208.465 190.886 208.207C191.899 207.869 192.899 207.507 193.905 207.124C194.174 207.014 194.441 206.916 194.71 206.806C195.256 206.598 195.793 206.379 196.329 206.16C197.243 205.793 198.157 205.405 199.061 205.008C199.905 204.631 200.74 204.253 201.577 203.856C201.597 203.846 201.626 203.846 201.646 203.826C201.835 203.736 202.023 203.647 202.202 203.557H202.212C206.786 201.362 211.197 198.842 215.412 196.017C216.763 195.113 218.094 194.18 219.405 193.217C220.458 192.432 221.491 191.637 222.525 190.823C227.623 186.769 232.342 182.26 236.625 177.352V177.342C236.933 177.004 237.225 176.657 237.519 176.308C237.568 176.259 237.609 176.208 237.648 176.169C237.837 175.941 238.015 175.722 238.204 175.504V175.494C238.453 175.206 238.704 174.908 238.939 174.609C238.998 174.54 239.049 174.48 239.098 174.42V174.41C239.298 174.171 239.485 173.933 239.684 173.684C239.784 173.565 239.873 173.446 239.972 173.327V173.317C240.558 172.582 241.124 171.847 241.691 171.092C241.84 170.892 241.991 170.692 242.148 170.476C242.864 169.512 243.557 168.529 244.234 167.546V167.536C244.493 167.169 244.734 166.791 244.999 166.423L245.744 165.291C245.993 164.891 246.244 164.506 246.499 164.109L246.529 164.05C246.778 163.673 247.029 163.275 247.264 162.888C247.453 162.57 247.641 162.262 247.831 161.954C247.95 161.746 248.08 161.536 248.198 161.318C248.245 161.251 248.288 161.182 248.327 161.11L249.161 159.65C249.489 159.083 249.807 158.508 250.125 157.931C250.244 157.693 250.374 157.454 250.502 157.216C250.551 157.136 250.592 157.057 250.631 156.977C250.78 156.699 250.931 156.411 251.068 156.123C251.205 155.835 251.368 155.556 251.515 155.269C251.662 154.982 251.803 154.702 251.942 154.415C252.052 154.197 252.15 153.978 252.26 153.759C252.268 153.742 252.278 153.725 252.29 153.71C252.339 153.6 252.39 153.502 252.429 153.402C252.441 153.387 252.451 153.371 252.459 153.353C252.569 153.135 252.667 152.906 252.777 152.688C252.916 152.4 253.046 152.102 253.177 151.813C253.267 151.613 253.366 151.413 253.455 151.197C253.584 150.909 253.724 150.62 253.842 150.323C253.981 150.023 254.111 149.723 254.242 149.417C254.279 149.343 254.313 149.267 254.342 149.189C254.411 149.05 254.461 148.911 254.521 148.771C254.68 148.404 254.839 148.026 254.988 147.658C255.167 147.24 255.336 146.814 255.488 146.396C255.647 146.009 255.796 145.611 255.945 145.214L256.004 145.075C258.319 138.979 260.074 132.685 261.249 126.27V126.26C261.912 122.597 262.386 118.902 262.67 115.19C262.68 114.982 262.7 114.79 262.71 114.59C262.889 112.074 262.969 109.558 262.969 107.02C262.969 105.897 262.949 104.785 262.92 103.672C262.226 80.4031 253.929 58.0016 239.296 39.8954C238.978 39.4954 238.66 39.0954 238.332 38.7024C238.004 38.3094 237.667 37.9174 237.339 37.5304C226.449 24.7773 212.714 14.7614 197.243 8.29016C181.772 1.81895 164.996 -0.92649 148.269 0.275157C131.542 1.4768 115.331 6.59192 100.944 15.2081C86.5562 23.8244 74.3945 35.7006 65.439 49.8794C64.952 50.6544 64.466 51.4394 63.999 52.2244C63.532 53.0094 63.065 53.8134 62.608 54.6184C53.6099 70.6151 48.8956 88.6646 48.922 107.018L48.936 107.007Z" fill="#F2F2F2"/>
<path d="M799.997 257.027C799.997 259.442 799.918 261.857 799.749 264.249C799.57 267.11 799.262 269.949 798.843 272.773C797.441 282.273 794.761 291.539 790.876 300.32L790.276 301.628L789.976 302.284C789.876 302.502 789.768 302.721 789.668 302.93C789.529 303.218 789.399 303.497 789.268 303.774C789.099 304.122 788.93 304.474 788.752 304.818C788.732 304.857 788.713 304.908 788.683 304.957C788.534 305.257 788.395 305.543 788.236 305.842C788.206 305.907 788.173 305.97 788.136 306.031C787.967 306.369 787.788 306.716 787.61 307.054C787.41 307.411 787.223 307.78 787.024 308.137C786.547 309.022 786.051 309.895 785.544 310.77C785.395 311.029 785.243 311.287 785.087 311.545C784.948 311.783 784.809 312.022 784.66 312.261C784.56 312.42 784.46 312.589 784.36 312.748C784.201 313.017 784.042 313.274 783.873 313.543C783.506 314.129 783.128 314.715 782.76 315.301H782.75C782.581 315.57 782.402 315.837 782.224 316.101V316.111C781.698 316.911 781.151 317.7 780.605 318.485C780.603 318.485 780.6 318.485 780.598 318.485C780.597 318.488 780.597 318.49 780.598 318.492C780.161 319.128 779.704 319.744 779.257 320.36V320.37C778.957 320.757 778.671 321.155 778.372 321.542C778.134 321.86 777.885 322.188 777.636 322.506C777.587 322.575 777.526 322.635 777.477 322.706V322.716C777.408 322.806 777.338 322.885 777.269 322.975C776.216 324.327 775.13 325.648 774.011 326.939L773.832 327.147C773.773 327.216 773.703 327.286 773.643 327.365C773.543 327.475 773.454 327.583 773.355 327.693C773.256 327.803 773.166 327.911 773.067 328.021C767.232 334.594 760.617 340.429 753.367 345.396C752.404 346.061 751.42 346.704 750.436 347.333C750.187 347.492 749.936 347.651 749.691 347.8C749.622 347.849 749.542 347.9 749.473 347.949C749.334 348.028 749.204 348.108 749.073 348.198C748.942 348.288 748.814 348.357 748.673 348.437C748.147 348.765 747.61 349.083 747.073 349.401C746.944 349.481 746.804 349.56 746.673 349.639C746.542 349.718 746.404 349.788 746.273 349.868C746.273 349.878 746.273 349.878 746.263 349.878H746.253V349.888H746.243C745.576 350.276 744.901 350.653 744.216 351.02C743.849 351.22 743.471 351.42 743.093 351.62C742.239 352.087 741.374 352.534 740.51 352.961C740.202 353.11 739.884 353.261 739.576 353.418C739.317 353.537 739.06 353.666 738.801 353.785C738.721 353.824 738.652 353.854 738.583 353.895C738.365 353.995 738.156 354.095 737.937 354.195C737.699 354.305 737.46 354.413 737.237 354.523C736.968 354.642 736.711 354.762 736.437 354.87C735.444 355.317 734.437 355.745 733.437 356.151C729.841 357.625 726.167 358.899 722.43 359.966C722.261 360.015 722.082 360.066 721.904 360.115C720.304 360.562 718.694 360.969 717.074 361.337C714.243 361.993 711.385 362.529 708.501 362.947H708.481L707.448 363.096C707.418 363.096 707.389 363.106 707.348 363.106C707.348 363.116 707.348 363.116 707.338 363.106L706.196 363.255C706.17 363.263 706.144 363.266 706.117 363.265C705.76 363.314 705.391 363.354 705.034 363.394L703.872 363.513L702.978 363.602C702.953 363.611 702.926 363.615 702.899 363.612C702.63 363.632 702.362 363.661 702.094 363.681H702.055L701.355 363.74C698.584 363.958 695.802 364.058 692.98 364.058C689.93 364.058 686.9 363.939 683.91 363.681H683.88L681.963 363.502C681.794 363.482 681.635 363.472 681.463 363.453C681.433 363.453 681.394 363.443 681.363 363.443C681.314 363.433 681.263 363.433 681.204 363.423C681.177 363.424 681.15 363.421 681.124 363.413C680.906 363.393 680.687 363.364 680.459 363.344L679.714 363.254C679.465 363.224 679.214 363.185 678.969 363.154C678.91 363.144 678.859 363.144 678.8 363.134C678.621 363.114 678.443 363.085 678.264 363.055L678.005 363.025C677.826 362.995 677.657 362.976 677.479 362.946H677.469C672.018 362.163 666.637 360.951 661.376 359.323C661.098 359.234 660.82 359.154 660.542 359.064C660.532 359.064 660.522 359.054 660.512 359.054C660.433 359.024 660.343 359.005 660.263 358.975C659.518 358.736 658.783 358.488 658.049 358.23C657.036 357.892 656.036 357.53 655.03 357.147C654.761 357.037 654.494 356.939 654.225 356.829C653.678 356.621 653.142 356.402 652.606 356.183C651.692 355.816 650.778 355.428 649.874 355.031C649.03 354.654 648.195 354.276 647.358 353.879C647.338 353.869 647.309 353.869 647.289 353.849C647.1 353.759 646.912 353.67 646.733 353.58H646.723C642.149 351.385 637.738 348.865 633.523 346.04C632.172 345.136 630.84 344.203 629.529 343.24C628.476 342.455 627.443 341.66 626.409 340.846C621.311 336.792 616.591 332.283 612.309 327.375V327.365C612.001 327.027 611.709 326.68 611.415 326.331C611.366 326.282 611.325 326.231 611.286 326.192C611.097 325.964 610.919 325.745 610.73 325.527V325.517C610.481 325.229 610.23 324.931 609.994 324.632C609.935 324.563 609.884 324.503 609.835 324.443V324.433C609.635 324.194 609.447 323.956 609.249 323.707C609.149 323.588 609.06 323.469 608.961 323.35V323.34C608.375 322.605 607.809 321.87 607.242 321.115C607.093 320.915 606.942 320.715 606.785 320.499C606.07 319.535 605.376 318.552 604.699 317.569V317.559C604.44 317.192 604.199 316.814 603.934 316.446L603.189 315.314C602.94 314.914 602.689 314.529 602.434 314.132L602.404 314.073C602.155 313.696 601.904 313.298 601.668 312.911C601.479 312.593 601.291 312.285 601.101 311.977C600.982 311.769 600.852 311.559 600.734 311.341C600.687 311.274 600.644 311.205 600.605 311.133L599.771 309.673C599.443 309.106 599.125 308.531 598.807 307.954C598.688 307.715 598.558 307.477 598.429 307.238C598.38 307.158 598.34 307.079 598.3 306.999C598.151 306.721 598 306.433 597.863 306.145C597.726 305.857 597.563 305.578 597.416 305.291C597.269 305.004 597.128 304.724 596.989 304.437C596.879 304.219 596.781 304 596.671 303.781C596.663 303.764 596.653 303.747 596.641 303.732C596.592 303.622 596.541 303.524 596.502 303.424C596.49 303.409 596.48 303.393 596.472 303.375C596.362 303.157 596.264 302.928 596.154 302.71C596.015 302.422 595.885 302.124 595.754 301.836C595.664 301.636 595.565 301.436 595.476 301.22C595.347 300.932 595.207 300.643 595.089 300.346C594.95 300.046 594.82 299.746 594.689 299.44C594.651 299.366 594.618 299.29 594.589 299.212C594.519 299.073 594.47 298.934 594.41 298.794C594.251 298.427 594.092 298.049 593.943 297.681C593.764 297.263 593.596 296.837 593.443 296.419C593.284 296.032 593.135 295.634 592.986 295.237L592.927 295.098C590.612 289.002 588.857 282.708 587.682 276.293V276.283C587.019 272.62 586.545 268.925 586.261 265.213C586.251 265.005 586.231 264.813 586.222 264.613C586.043 262.097 585.963 259.581 585.963 257.043C585.963 255.92 585.983 254.808 586.012 253.695C586.706 230.426 595.003 208.025 609.636 189.918C609.954 189.518 610.272 189.118 610.6 188.725C610.928 188.332 611.265 187.94 611.593 187.553C622.483 174.8 636.218 164.784 651.689 158.313C667.16 151.842 683.936 149.096 700.663 150.298C717.39 151.5 733.601 156.615 747.988 165.231C762.376 173.847 774.537 185.724 783.493 199.902C783.98 200.677 784.467 201.462 784.934 202.247C785.401 203.032 785.868 203.836 786.325 204.641C795.316 220.635 800.025 238.68 799.997 257.027Z" fill="#F2F2F2"/>
<path d="M577.074 522.5L505.931 508.671C503.518 508.2 501.392 506.79 500.017 504.753C498.643 502.715 498.133 500.215 498.6 497.802L514.841 414.251C515.312 411.838 516.721 409.712 518.759 408.338C520.796 406.963 523.296 406.453 525.709 406.92L591.9 419.786L603.772 433.72L587.94 515.168C587.468 517.58 586.059 519.707 584.022 521.081C581.984 522.456 579.484 522.966 577.071 522.5L577.074 522.5Z" fill="#090814"/>
<path d="M525.199 409.539C523.481 409.208 521.702 409.571 520.252 410.55C518.801 411.528 517.798 413.042 517.461 414.759L501.22 498.312C500.889 500.03 501.252 501.809 502.23 503.26C503.209 504.71 504.723 505.714 506.44 506.05L577.582 519.879C579.3 520.21 581.079 519.847 582.53 518.869C583.981 517.89 584.984 516.376 585.32 514.659L600.907 434.473L590.472 422.227L525.199 409.539Z" fill="#F2F2F2"/>
<path d="M577.784 444.971L545.39 438.674C544.997 438.587 544.654 438.35 544.433 438.013C544.213 437.677 544.133 437.267 544.21 436.872C544.287 436.477 544.515 436.128 544.846 435.899C545.177 435.67 545.585 435.579 545.981 435.647L578.375 441.943C578.578 441.977 578.772 442.052 578.946 442.162C579.12 442.273 579.27 442.417 579.387 442.586C579.505 442.755 579.587 442.946 579.629 443.148C579.672 443.349 579.673 443.557 579.634 443.759C579.595 443.962 579.515 444.154 579.401 444.325C579.286 444.496 579.138 444.642 578.966 444.755C578.794 444.868 578.601 444.945 578.398 444.983C578.195 445.02 577.988 445.016 577.786 444.972L577.784 444.971Z" fill="#5F9EA0"/>
<path d="M583.041 451.299L544.399 443.788C544.006 443.701 543.663 443.464 543.442 443.128C543.221 442.791 543.141 442.382 543.217 441.987C543.294 441.592 543.522 441.243 543.853 441.013C544.184 440.784 544.591 440.693 544.988 440.76L583.63 448.271C584.023 448.358 584.366 448.595 584.587 448.931C584.808 449.268 584.888 449.677 584.811 450.072C584.735 450.467 584.506 450.817 584.176 451.046C583.845 451.275 583.438 451.366 583.041 451.299Z" fill="#5F9EA0"/>
<path d="M573.919 464.861L541.525 458.564C541.128 458.498 540.721 458.589 540.39 458.818C540.059 459.047 539.831 459.396 539.754 459.792C539.678 460.187 539.758 460.596 539.979 460.932C540.2 461.269 540.543 461.506 540.936 461.593L573.33 467.889C573.531 467.934 573.739 467.937 573.941 467.9C574.144 467.863 574.337 467.786 574.509 467.673C574.681 467.56 574.829 467.413 574.944 467.242C575.059 467.071 575.138 466.879 575.177 466.677C575.217 466.475 575.215 466.267 575.173 466.065C575.13 465.864 575.048 465.673 574.931 465.504C574.814 465.334 574.664 465.19 574.49 465.08C574.316 464.97 574.122 464.895 573.919 464.861Z" fill="#CCCCCC"/>
<path d="M579.174 471.191L540.533 463.68C540.136 463.613 539.729 463.704 539.398 463.934C539.067 464.163 538.839 464.512 538.762 464.907C538.685 465.302 538.766 465.712 538.987 466.048C539.208 466.385 539.551 466.621 539.944 466.708L578.585 474.219C578.786 474.264 578.994 474.267 579.196 474.23C579.399 474.193 579.592 474.116 579.764 474.003C579.936 473.89 580.084 473.743 580.199 473.572C580.314 473.401 580.393 473.209 580.432 473.007C580.472 472.805 580.47 472.597 580.428 472.395C580.385 472.194 580.303 472.003 580.186 471.834C580.068 471.664 579.918 471.52 579.745 471.41C579.571 471.3 579.377 471.225 579.174 471.191Z" fill="#CCCCCC"/>
<path d="M568.873 490.81L536.48 484.513C536.087 484.426 535.744 484.189 535.523 483.852C535.303 483.516 535.222 483.106 535.3 482.711C535.377 482.316 535.605 481.967 535.936 481.738C536.267 481.509 536.674 481.419 537.071 481.486L569.465 487.782C569.668 487.817 569.862 487.891 570.036 488.001C570.21 488.112 570.36 488.256 570.477 488.425C570.595 488.594 570.677 488.785 570.719 488.987C570.762 489.188 570.763 489.396 570.724 489.598C570.685 489.801 570.605 489.993 570.49 490.164C570.376 490.335 570.228 490.481 570.056 490.594C569.883 490.707 569.69 490.784 569.488 490.822C569.285 490.859 569.077 490.855 568.876 490.811L568.873 490.81Z" fill="#CCCCCC"/>
<path d="M574.131 497.139L535.489 489.628C535.096 489.541 534.753 489.305 534.532 488.968C534.311 488.632 534.23 488.222 534.307 487.827C534.384 487.432 534.612 487.083 534.943 486.853C535.274 486.624 535.681 486.533 536.078 486.6L574.719 494.111C575.112 494.198 575.456 494.435 575.677 494.771C575.897 495.108 575.978 495.517 575.901 495.912C575.824 496.307 575.596 496.657 575.266 496.886C574.935 497.115 574.528 497.206 574.131 497.139Z" fill="#CCCCCC"/>
<path d="M530.66 442.453C533.618 443.027 536.482 441.096 537.057 438.138C537.632 435.18 535.7 432.316 532.742 431.741C529.785 431.166 526.921 433.098 526.346 436.056C525.771 439.014 527.702 441.878 530.66 442.453Z" fill="#5F9EA0"/>
<path d="M530.774 439.036C530.653 439.013 530.543 438.951 530.461 438.86L530.455 438.859L529.384 437.647C529.328 437.593 529.283 437.527 529.254 437.454C529.224 437.381 529.209 437.303 529.211 437.225C529.213 437.146 529.231 437.069 529.265 436.997C529.298 436.926 529.346 436.863 529.405 436.811C529.464 436.759 529.533 436.719 529.608 436.696C529.682 436.672 529.761 436.663 529.84 436.671C529.918 436.679 529.993 436.704 530.062 436.742C530.13 436.781 530.19 436.833 530.237 436.896L530.931 437.68L533.347 435.537C533.403 435.487 533.468 435.449 533.539 435.424C533.61 435.4 533.685 435.389 533.76 435.394C533.835 435.399 533.908 435.418 533.975 435.451C534.042 435.484 534.103 435.53 534.152 435.586L534.133 435.599L534.151 435.585C534.201 435.641 534.239 435.707 534.264 435.777C534.288 435.848 534.298 435.923 534.294 435.998C534.289 436.073 534.27 436.146 534.237 436.213C534.204 436.281 534.158 436.341 534.102 436.39L531.261 438.905C531.195 438.962 531.117 439.004 531.033 439.027C530.948 439.05 530.86 439.053 530.774 439.036Z" fill="white"/>
<path d="M533.154 461.164C533.018 461.867 532.744 462.537 532.349 463.135C531.953 463.732 531.444 464.246 530.85 464.647C530.256 465.048 529.589 465.328 528.887 465.471C528.185 465.614 527.461 465.617 526.758 465.481C526.712 465.473 526.666 465.462 526.621 465.449C525.574 465.217 524.619 464.68 523.875 463.908C523.131 463.135 522.631 462.16 522.438 461.105C522.245 460.049 522.368 458.961 522.79 457.975C523.213 456.989 523.917 456.149 524.814 455.561C525.711 454.973 526.762 454.663 527.835 454.669C528.907 454.675 529.955 454.997 530.845 455.595C531.736 456.193 532.43 457.041 532.842 458.031C533.253 459.022 533.364 460.112 533.159 461.165L533.154 461.164Z" fill="#5F9EA0"/>
<path d="M521.75 488.291C524.708 488.866 527.572 486.935 528.147 483.977C528.722 481.019 526.79 478.155 523.832 477.58C520.874 477.005 518.01 478.937 517.436 481.895C516.861 484.852 518.792 487.716 521.75 488.291Z" fill="#5F9EA0"/>
<path d="M603.426 434.027L592.417 431.887C591.614 431.731 590.906 431.262 590.448 430.584C589.991 429.906 589.822 429.073 589.978 428.27L591.559 420.136C591.566 420.101 591.582 420.068 591.607 420.041C591.632 420.014 591.664 419.995 591.699 419.986C591.734 419.976 591.771 419.977 591.806 419.988C591.84 419.999 591.871 420.019 591.895 420.047L603.614 433.712C603.64 433.742 603.656 433.78 603.659 433.82C603.663 433.86 603.654 433.9 603.634 433.934C603.614 433.969 603.583 433.996 603.547 434.013C603.51 434.03 603.47 434.034 603.43 434.027L603.426 434.027Z" fill="#090814"/>
<path d="M482.69 185.934L411.444 204.276C409.027 204.895 406.463 204.531 404.315 203.262C402.166 201.994 400.609 199.925 399.984 197.51L378.434 113.84C377.814 111.423 378.179 108.859 379.447 106.71C380.716 104.562 382.784 103.005 385.2 102.38L451.483 85.3115L468.447 92.9065L489.447 174.477C490.066 176.892 489.702 179.454 488.436 181.601C487.169 183.749 485.103 185.307 482.69 185.934Z" fill="#090814"/>
<path d="M385.879 105.006C384.16 105.451 382.687 106.56 381.783 108.089C380.88 109.619 380.621 111.445 381.061 113.166L402.608 196.84C403.054 198.559 404.163 200.032 405.692 200.936C407.222 201.839 409.048 202.098 410.768 201.658L482.014 183.308C483.734 182.862 485.207 181.753 486.111 180.224C487.014 178.694 487.273 176.868 486.832 175.148L466.155 94.8475L451.246 88.1755L385.879 105.006Z" fill="#F2F2F2"/>
<path d="M468.27 93.3396L457.24 96.1796C456.842 96.2826 456.426 96.306 456.019 96.2484C455.611 96.1908 455.219 96.0534 454.864 95.8441C454.51 95.6347 454.2 95.3575 453.953 95.0283C453.705 94.6992 453.525 94.3244 453.423 93.9256L451.323 85.7816C451.315 85.7459 451.317 85.7087 451.329 85.674C451.341 85.6393 451.362 85.6086 451.39 85.5851C451.418 85.5615 451.452 85.5462 451.488 85.5406C451.524 85.5351 451.561 85.5396 451.595 85.5536L468.295 92.9706C468.331 92.9886 468.36 93.0167 468.379 93.0514C468.399 93.086 468.407 93.1256 468.404 93.1652C468.401 93.2048 468.386 93.2425 468.361 93.2736C468.336 93.3046 468.303 93.3276 468.265 93.3396H468.27Z" fill="#090814"/>
<path d="M462.469 164.794L430.032 173.148C429.63 173.252 429.203 173.192 428.845 172.98C428.487 172.769 428.227 172.424 428.124 172.022C428.02 171.619 428.081 171.192 428.292 170.834C428.503 170.476 428.848 170.217 429.25 170.113L461.688 161.762C462.091 161.659 462.518 161.719 462.876 161.93C463.234 162.142 463.493 162.486 463.597 162.889C463.701 163.291 463.64 163.719 463.429 164.077C463.218 164.434 462.873 164.694 462.47 164.797L462.469 164.794Z" fill="#CCCCCC"/>
<path d="M470.055 168.304L431.355 178.269C430.952 178.372 430.525 178.312 430.167 178.101C429.809 177.889 429.55 177.545 429.446 177.142C429.342 176.74 429.403 176.312 429.614 175.955C429.825 175.597 430.17 175.337 430.573 175.234L469.273 165.269C469.675 165.165 470.102 165.225 470.46 165.437C470.818 165.648 471.077 165.993 471.181 166.395C471.285 166.798 471.224 167.225 471.013 167.583C470.802 167.941 470.457 168.2 470.055 168.304Z" fill="#CCCCCC"/>
<path d="M416.793 183.208C419.852 183.208 422.332 180.728 422.332 177.669C422.332 174.61 419.852 172.13 416.793 172.13C413.734 172.13 411.254 174.61 411.254 177.669C411.254 180.728 413.734 183.208 416.793 183.208Z" fill="#5F9EA0"/>
<path d="M459.022 150.3L415.94 161.39C414.696 161.709 413.376 161.52 412.27 160.867C411.164 160.213 410.362 159.148 410.04 157.904L401.012 122.832C400.694 121.588 400.883 120.268 401.536 119.162C402.19 118.056 403.256 117.254 404.499 116.932L447.579 105.843C448.824 105.525 450.144 105.714 451.25 106.368C452.356 107.021 453.158 108.087 453.479 109.33L462.507 144.402C462.825 145.647 462.637 146.966 461.983 148.071C461.33 149.177 460.265 149.978 459.022 150.3Z" fill="white"/>
<path d="M459.022 150.3L415.94 161.39C414.696 161.709 413.376 161.52 412.27 160.867C411.164 160.213 410.362 159.148 410.04 157.904L401.012 122.832C400.694 121.588 400.883 120.268 401.536 119.162C402.19 118.056 403.256 117.254 404.499 116.932L447.579 105.843C448.824 105.525 450.144 105.714 451.25 106.368C452.356 107.021 453.158 108.087 453.479 109.33L462.507 144.402C462.825 145.647 462.637 146.966 461.983 148.071C461.33 149.177 460.265 149.978 459.022 150.3ZM404.639 117.482C403.542 117.767 402.601 118.475 402.025 119.451C401.448 120.428 401.283 121.593 401.564 122.691L410.592 157.763C410.877 158.861 411.585 159.802 412.561 160.378C413.538 160.955 414.703 161.12 415.801 160.838L458.879 149.747C459.977 149.463 460.918 148.755 461.494 147.779C462.071 146.802 462.236 145.637 461.954 144.538L452.927 109.466C452.643 108.369 451.935 107.428 450.959 106.852C449.982 106.275 448.817 106.11 447.718 106.391L404.639 117.482Z" fill="#E6E6E6"/>
<path d="M445.389 117.627L423.647 123.227C423.457 123.281 423.254 123.26 423.079 123.169C422.903 123.078 422.769 122.924 422.703 122.737C422.672 122.64 422.662 122.538 422.672 122.436C422.682 122.335 422.712 122.236 422.762 122.147C422.811 122.058 422.878 121.98 422.959 121.917C423.04 121.855 423.133 121.81 423.231 121.784L445.363 116.084C446.257 116.537 446.021 117.463 445.388 117.627H445.389Z" fill="#F2F2F2"/>
<path d="M446.37 121.446L424.628 127.046C424.438 127.099 424.234 127.078 424.059 126.987C423.884 126.896 423.75 126.742 423.684 126.556C423.653 126.458 423.642 126.356 423.652 126.254C423.662 126.153 423.693 126.054 423.742 125.965C423.792 125.876 423.859 125.798 423.94 125.735C424.02 125.673 424.113 125.628 424.212 125.603L446.344 119.903C447.238 120.356 447.003 121.282 446.368 121.446H446.37Z" fill="#F2F2F2"/>
<path d="M420.49 130.423L413.855 132.131C413.638 132.186 413.408 132.153 413.215 132.04C413.023 131.926 412.883 131.74 412.828 131.524L410.812 123.695C410.756 123.478 410.789 123.248 410.903 123.055C411.016 122.863 411.202 122.723 411.419 122.668L418.054 120.96C418.27 120.904 418.5 120.937 418.693 121.051C418.885 121.165 419.025 121.35 419.081 121.567L421.097 129.396C421.124 129.503 421.13 129.615 421.115 129.724C421.099 129.834 421.062 129.94 421.006 130.035C420.95 130.13 420.875 130.214 420.786 130.28C420.698 130.347 420.597 130.395 420.49 130.423Z" fill="#5F9EA0"/>
<path d="M448.32 129.27L415.138 137.812C414.948 137.865 414.744 137.844 414.569 137.753C414.394 137.662 414.26 137.508 414.194 137.323C414.163 137.225 414.152 137.123 414.162 137.021C414.172 136.92 414.203 136.821 414.252 136.732C414.301 136.643 414.369 136.565 414.449 136.502C414.53 136.44 414.623 136.395 414.722 136.37L448.294 127.728C449.188 128.181 448.953 129.107 448.318 129.271L448.32 129.27Z" fill="#F2F2F2"/>
<path d="M449.301 133.089L416.118 141.631C415.928 141.684 415.725 141.663 415.55 141.572C415.374 141.481 415.24 141.328 415.174 141.142C415.143 141.044 415.132 140.942 415.142 140.84C415.152 140.739 415.183 140.641 415.233 140.551C415.282 140.462 415.349 140.384 415.43 140.322C415.511 140.259 415.603 140.214 415.702 140.189L449.278 131.547C450.172 132 449.937 132.926 449.303 133.09L449.301 133.089Z" fill="#F2F2F2"/>
<path d="M450.282 136.897L417.1 145.439C416.91 145.492 416.707 145.471 416.532 145.38C416.357 145.289 416.222 145.135 416.156 144.949C416.125 144.851 416.115 144.749 416.125 144.647C416.135 144.546 416.166 144.447 416.215 144.358C416.264 144.269 416.332 144.191 416.412 144.128C416.493 144.066 416.586 144.021 416.684 143.996L450.256 135.354C451.152 135.807 450.913 136.732 450.282 136.897Z" fill="#F2F2F2"/>
<path d="M451.261 140.71L418.079 149.252C417.889 149.306 417.686 149.285 417.511 149.194C417.335 149.103 417.201 148.949 417.135 148.763C417.104 148.666 417.093 148.564 417.103 148.462C417.113 148.361 417.144 148.262 417.193 148.173C417.243 148.084 417.31 148.006 417.391 147.943C417.471 147.881 417.564 147.836 417.663 147.81L451.236 139.169C452.133 139.62 451.897 140.547 451.261 140.71Z" fill="#F2F2F2"/>
<path d="M452.245 144.523L419.063 153.065C418.873 153.119 418.67 153.098 418.495 153.007C418.319 152.916 418.185 152.762 418.119 152.575C418.088 152.478 418.078 152.376 418.088 152.274C418.098 152.173 418.128 152.074 418.178 151.985C418.227 151.896 418.294 151.818 418.375 151.755C418.456 151.693 418.548 151.648 418.647 151.622L452.219 142.98C453.114 143.433 452.879 144.363 452.245 144.523Z" fill="#F2F2F2"/>
<path d="M417.201 179.61C417.08 179.641 416.952 179.632 416.837 179.585H416.83L415.321 178.945C415.185 178.881 415.079 178.767 415.025 178.627C414.971 178.487 414.974 178.331 415.033 178.193C415.091 178.055 415.201 177.945 415.34 177.886C415.478 177.828 415.634 177.825 415.774 177.88L416.752 178.296L418.033 175.282C418.063 175.212 418.106 175.148 418.16 175.095C418.214 175.042 418.278 175 418.349 174.971C418.419 174.943 418.495 174.928 418.571 174.929C418.647 174.93 418.722 174.946 418.792 174.976C418.933 175.036 419.044 175.149 419.101 175.291C419.159 175.433 419.158 175.592 419.098 175.734L417.591 179.274C417.556 179.355 417.503 179.428 417.435 179.485C417.368 179.543 417.288 179.585 417.202 179.607L417.201 179.61Z" fill="white"/>
<path d="M0.00016451 404.95C0.00016451 407.365 0.0791574 409.78 0.249157 412.172C0.428157 415.033 0.736163 417.872 1.15516 420.695C2.55739 430.195 5.23733 439.461 9.12217 448.242L9.72218 449.55L10.0222 450.205C10.1222 450.423 10.2302 450.642 10.3302 450.851C10.4692 451.139 10.5992 451.418 10.7302 451.695C10.8992 452.042 11.0682 452.395 11.2462 452.738C11.2662 452.777 11.2852 452.827 11.3152 452.877C11.4642 453.177 11.6032 453.463 11.7622 453.762C11.7916 453.827 11.825 453.89 11.8622 453.951C12.0312 454.289 12.2092 454.636 12.3882 454.974C12.5882 455.331 12.7762 455.7 12.9742 456.057C13.4512 456.942 13.9472 457.815 14.4542 458.69C14.6032 458.949 14.7542 459.206 14.9112 459.465C15.0502 459.704 15.1892 459.942 15.3382 460.181C15.4382 460.34 15.5382 460.509 15.6382 460.668C15.7972 460.937 15.9562 461.194 16.1252 461.463C16.4922 462.049 16.8702 462.635 17.2382 463.221H17.2482C17.4172 463.49 17.5962 463.757 17.7742 464.016V464.026C18.3002 464.821 18.8472 465.615 19.3932 466.4C19.3958 466.4 19.3984 466.401 19.4002 466.403C19.4021 466.405 19.4032 466.408 19.4032 466.41C19.8402 467.046 20.2972 467.662 20.7442 468.278V468.288C21.0442 468.675 21.3302 469.073 21.6292 469.46C21.8682 469.778 22.1162 470.106 22.3642 470.424C22.4132 470.493 22.4742 470.553 22.5232 470.624V470.634C22.5922 470.724 22.6622 470.803 22.7312 470.893C23.7845 472.245 24.8708 473.566 25.9902 474.857L26.1692 475.065C26.2282 475.134 26.2982 475.204 26.3582 475.283C26.4582 475.393 26.5472 475.501 26.6462 475.611C26.7452 475.721 26.8352 475.829 26.9342 475.939C32.7687 482.512 39.3844 488.347 46.6342 493.314C47.5982 493.979 48.5812 494.622 49.5642 495.251C49.8132 495.41 50.0642 495.569 50.3092 495.718C50.3782 495.767 50.4582 495.818 50.5272 495.867C50.6662 495.946 50.7962 496.026 50.9272 496.116C51.0582 496.206 51.1862 496.275 51.3272 496.354C51.8532 496.682 52.3902 497 52.9272 497.318C53.0562 497.397 53.1962 497.477 53.3272 497.556C53.4582 497.635 53.5962 497.705 53.7272 497.784C53.7272 497.794 53.7272 497.794 53.7372 497.794H53.7472V497.804H53.7572C54.4238 498.192 55.0995 498.569 55.7842 498.936C56.1512 499.136 56.5292 499.336 56.9072 499.536C57.7612 500.003 58.6262 500.45 59.4902 500.877C59.7982 501.026 60.1162 501.177 60.4242 501.334C60.6832 501.453 60.9402 501.583 61.1992 501.701C61.2782 501.74 61.3482 501.77 61.4172 501.811C61.6352 501.911 61.8442 502.011 62.0632 502.111C62.3022 502.221 62.5402 502.329 62.7632 502.439C63.0322 502.558 63.2892 502.678 63.5632 502.786C64.5562 503.233 65.5632 503.66 66.5632 504.067C70.1589 505.541 73.8335 506.815 77.5702 507.882C77.7392 507.931 77.9182 507.982 78.0962 508.031C79.6962 508.478 81.3062 508.885 82.9262 509.253C85.7575 509.909 88.6152 510.445 91.4992 510.863H91.5192L92.5532 511.012C92.5832 511.012 92.6122 511.022 92.6532 511.022C92.6532 511.032 92.6532 511.032 92.6632 511.022L93.8052 511.171C93.8311 511.179 93.8581 511.182 93.8852 511.181C94.2422 511.23 94.6112 511.271 94.9682 511.31L96.1302 511.429L97.0242 511.518C97.0498 511.527 97.0771 511.531 97.1042 511.528C97.3732 511.548 97.6402 511.577 97.9092 511.597H97.9492L98.6492 511.656C101.42 511.874 104.202 511.974 107.024 511.974C110.074 511.974 113.104 511.855 116.094 511.597H116.124L118.041 511.418C118.21 511.398 118.369 511.388 118.541 511.369C118.571 511.369 118.61 511.359 118.641 511.359C118.69 511.349 118.741 511.349 118.8 511.339C118.827 511.34 118.854 511.337 118.879 511.329C119.097 511.309 119.316 511.28 119.544 511.26L120.289 511.17C120.538 511.14 120.789 511.101 121.034 511.07C121.093 511.06 121.144 511.06 121.203 511.05C121.382 511.03 121.56 511.001 121.739 510.971L121.998 510.941C122.177 510.911 122.346 510.892 122.524 510.862H122.534C127.985 510.079 133.366 508.867 138.627 507.239C138.905 507.149 139.183 507.07 139.461 506.98C139.471 506.98 139.481 506.97 139.491 506.97C139.571 506.94 139.66 506.921 139.74 506.891C140.485 506.652 141.22 506.404 141.954 506.146C142.967 505.808 143.967 505.446 144.973 505.063C145.242 504.953 145.509 504.855 145.778 504.745C146.325 504.537 146.861 504.318 147.397 504.099C148.311 503.732 149.224 503.344 150.129 502.947C150.973 502.57 151.808 502.192 152.645 501.795C152.665 501.785 152.694 501.785 152.714 501.765C152.903 501.675 153.091 501.586 153.27 501.496H153.28C157.854 499.301 162.265 496.781 166.48 493.956C167.832 493.053 169.162 492.12 170.473 491.156C171.526 490.371 172.559 489.576 173.593 488.762C178.691 484.708 183.411 480.199 187.693 475.291V475.281C188.001 474.943 188.293 474.596 188.587 474.248C188.636 474.199 188.677 474.148 188.716 474.109C188.905 473.88 189.083 473.662 189.272 473.444V473.434C189.521 473.146 189.772 472.848 190.007 472.549C190.066 472.48 190.117 472.42 190.166 472.36V472.35C190.366 472.111 190.554 471.873 190.752 471.624C190.852 471.505 190.941 471.385 191.04 471.267V471.257C191.626 470.521 192.192 469.787 192.759 469.032C192.908 468.832 193.059 468.632 193.216 468.416C193.931 467.452 194.625 466.469 195.302 465.486V465.476C195.561 465.109 195.802 464.731 196.067 464.363L196.812 463.231C197.061 462.831 197.312 462.446 197.567 462.048L197.597 461.989C197.846 461.612 198.097 461.214 198.332 460.827C198.521 460.509 198.709 460.201 198.899 459.893C199.018 459.685 199.148 459.475 199.266 459.257C199.313 459.19 199.356 459.121 199.395 459.049L200.229 457.589C200.557 457.022 200.875 456.447 201.193 455.87C201.312 455.631 201.442 455.393 201.57 455.154C201.619 455.075 201.659 454.995 201.699 454.916C201.848 454.638 201.999 454.349 202.136 454.062C202.273 453.775 202.436 453.495 202.583 453.208C202.73 452.921 202.871 452.642 203.01 452.354C203.12 452.136 203.218 451.917 203.328 451.699C203.336 451.682 203.346 451.665 203.358 451.65C203.407 451.54 203.458 451.442 203.497 451.342C203.509 451.328 203.519 451.311 203.527 451.293C203.637 451.075 203.735 450.846 203.845 450.628C203.984 450.34 204.114 450.042 204.245 449.754C204.335 449.554 204.434 449.354 204.523 449.138C204.652 448.85 204.792 448.561 204.91 448.263C205.049 447.963 205.179 447.663 205.31 447.357C205.348 447.283 205.381 447.207 205.41 447.129C205.479 446.99 205.529 446.851 205.589 446.711C205.748 446.344 205.907 445.966 206.056 445.598C206.235 445.18 206.403 444.754 206.556 444.336C206.715 443.949 206.864 443.551 207.013 443.154L207.072 443.015C209.387 436.919 211.142 430.625 212.317 424.21V424.2C212.98 420.537 213.454 416.842 213.738 413.13C213.748 412.922 213.768 412.73 213.777 412.53C213.956 410.014 214.036 407.498 214.036 404.96C214.036 403.837 214.016 402.725 213.987 401.612C213.294 378.343 204.996 355.941 190.363 337.834C190.045 337.434 189.727 337.034 189.399 336.641C189.071 336.248 188.734 335.856 188.406 335.469C177.516 322.716 163.782 312.7 148.31 306.229C132.839 299.758 116.063 297.012 99.3363 298.214C82.6092 299.416 66.3984 304.531 52.0109 313.147C37.6234 321.763 25.4617 333.64 16.5062 347.818C16.0192 348.593 15.5332 349.378 15.0662 350.163C14.5992 350.948 14.1322 351.752 13.6752 352.557C4.68017 368.555 -0.0309186 386.604 -0.00181913 404.957L0.00016451 404.95Z" fill="#F2F2F2"/>
<path d="M378.566 302.705C380.136 302.951 381.765 303.107 383.269 302.511C383.506 302.422 383.766 302.222 383.743 301.933C383.726 301.827 383.689 301.728 383.636 301.643C383.069 300.604 382.593 299.496 382.215 298.335C382.2 298.275 382.169 298.222 382.127 298.185C382.078 298.163 382.025 298.163 381.976 298.185C381.282 298.408 380.683 298.955 379.993 299.19C379.642 299.308 379.275 299.341 378.914 299.289C378.601 299.245 378.173 298.93 377.891 298.969C378.052 300.234 378.445 301.415 378.566 302.705Z" fill="#6C63FF"/>
<path d="M408.262 299.501C409.297 298.633 410.37 297.721 410.981 296.381C411.025 296.301 411.05 296.209 411.054 296.113C411.044 296.018 411.014 295.929 410.967 295.853C410.385 294.722 409.635 293.733 408.757 292.938C408.299 293.334 407.885 293.801 407.526 294.327C407.265 294.662 406.546 295.196 406.539 295.708C406.539 295.997 406.813 296.333 406.942 296.576C407.115 296.889 407.278 297.207 407.435 297.531C407.523 297.69 408.344 299.438 408.262 299.501Z" fill="#6C63FF"/>
<path d="M384.721 306.58C384.74 306.879 384.673 307.175 384.532 307.42C384.422 307.555 384.285 307.655 384.134 307.709C381.939 308.67 379.398 307.472 377.207 308.418C376.757 308.612 376.33 308.893 375.879 309.078C375.34 309.276 374.783 309.397 374.221 309.437C373.447 309.527 372.668 309.585 371.891 309.611C371.301 309.662 370.708 309.598 370.134 309.422C369.847 309.332 369.578 309.169 369.346 308.944C369.114 308.719 368.923 308.437 368.786 308.116C368.667 307.828 368.643 307.495 368.72 307.187C368.754 307.081 368.803 306.983 368.864 306.897C369.013 306.694 369.187 306.521 369.38 306.385L370.188 305.749C370.567 305.421 370.978 305.155 371.412 304.956C371.732 304.829 372.07 304.773 372.395 304.666C373.529 304.261 374.396 303.162 375.201 302.105L376.3 300.673C376.403 300.515 376.533 300.388 376.682 300.299C376.834 300.237 376.996 300.219 377.155 300.244C378.223 300.338 379.253 300.76 380.151 301.472C380.381 301.682 380.629 301.861 380.891 302.004C381.536 302.311 382.362 302.08 382.956 301.692C383.238 301.506 383.176 301.402 383.295 301.072C383.414 300.743 383.702 300.531 383.953 300.832C384.029 300.936 384.082 301.062 384.109 301.197C384.346 302.152 384.256 303.18 384.256 304.181C384.249 304.337 384.265 304.494 384.304 304.644C384.364 304.795 384.436 304.938 384.519 305.072C384.536 305.108 384.551 305.144 384.564 305.182C384.709 305.625 384.763 306.105 384.723 306.58L384.721 306.58Z" fill="#514E7F"/>
<path d="M384.72 306.58C384.739 306.879 384.672 307.175 384.531 307.42C384.42 307.555 384.284 307.655 384.133 307.709C381.938 308.67 379.397 307.472 377.206 308.418C376.757 308.612 376.33 308.893 375.878 309.078C375.339 309.276 374.782 309.397 374.22 309.437C373.446 309.527 372.667 309.585 371.89 309.611C371.3 309.662 370.707 309.598 370.133 309.422C369.846 309.332 369.577 309.169 369.345 308.944C369.113 308.719 368.922 308.437 368.785 308.116C368.666 307.829 368.641 307.496 368.717 307.187C368.751 307.082 368.8 306.984 368.861 306.898C368.989 307.225 369.081 307.659 369.163 307.815C369.272 308.047 369.42 308.247 369.597 308.403C369.774 308.559 369.977 308.667 370.191 308.72C370.511 308.744 370.833 308.694 371.138 308.572C373.127 307.969 375.242 307.961 377.153 307.05C377.809 306.734 378.435 306.315 379.123 306.124C379.812 305.933 380.544 305.985 381.255 305.912C382.378 305.803 383.465 305.388 384.571 305.171C384.713 305.618 384.765 306.102 384.72 306.578L384.72 306.58Z" fill="#464353"/>
<path d="M413.29 299.326C413.186 300.344 412.657 301.221 412.077 301.965C411.497 302.709 410.841 303.379 410.38 304.234C409.811 305.296 409.556 306.613 408.817 307.51C408.534 307.836 408.215 308.114 407.87 308.335C407.484 308.614 407.075 308.843 406.65 309.021C405.547 309.452 404.358 309.354 403.205 309.249C402.83 309.244 402.459 309.157 402.11 308.991C401.952 308.892 401.799 308.778 401.656 308.649C401.367 308.432 401.123 308.134 400.945 307.781C400.858 307.589 400.833 307.363 400.876 307.15C400.942 306.915 401.055 306.704 401.205 306.537C401.465 306.207 401.743 305.9 402.039 305.619C402.445 305.3 402.81 304.91 403.124 304.461C403.317 304.107 403.459 303.716 403.544 303.304C403.711 302.581 403.814 301.839 403.849 301.09C403.848 300.592 403.89 300.095 403.974 299.608C404.15 298.844 404.614 298.161 404.562 297.371C404.541 297.257 404.549 297.139 404.585 297.032C404.64 296.948 404.717 296.89 404.803 296.867C405.165 296.691 405.547 296.583 405.935 296.546C406.13 296.529 406.325 296.566 406.507 296.652C406.689 296.739 406.853 296.874 406.987 297.047C407.148 297.285 407.254 297.626 407.49 297.717C407.608 297.756 407.731 297.762 407.85 297.735C408.433 297.662 409.048 297.573 409.508 297.113C409.72 296.88 409.891 296.596 410.009 296.279C410.127 295.962 410.19 295.619 410.195 295.27C410.195 295.007 410.098 294.732 410.432 294.691C410.683 294.651 410.881 294.981 411.01 295.184C411.472 295.939 411.945 296.729 412.118 297.649C412.185 297.617 412.257 297.601 412.329 297.6C412.477 297.598 412.622 297.64 412.754 297.723C412.886 297.805 412.999 297.924 413.084 298.072C413.273 298.445 413.346 298.889 413.29 299.322L413.29 299.326Z" fill="#514E7F"/>
<path d="M413.29 299.326C413.186 300.344 412.658 301.221 412.077 301.965C411.497 302.709 410.841 303.379 410.38 304.234C409.812 305.296 409.556 306.613 408.817 307.51C408.534 307.836 408.215 308.114 407.87 308.335C407.484 308.614 407.075 308.843 406.651 309.021C405.547 309.452 404.358 309.354 403.205 309.249C402.83 309.244 402.46 309.157 402.111 308.991C401.952 308.892 401.8 308.778 401.656 308.649C401.367 308.432 401.123 308.134 400.945 307.781C401.167 307.65 401.41 307.579 401.656 307.572C402.167 307.606 402.542 308.198 403.032 308.38C403.73 308.638 404.427 308.035 405.135 307.83C405.597 307.696 406.082 307.732 406.539 307.541C406.92 307.361 407.272 307.1 407.579 306.77C407.999 306.403 408.373 305.963 408.69 305.464C408.952 304.964 409.17 304.431 409.341 303.875C409.715 302.809 410.155 301.779 410.657 300.796C410.731 300.64 410.821 300.496 410.924 300.367C411.04 300.251 411.161 300.144 411.287 300.046C411.761 299.61 411.957 298.888 412.123 298.182C412.168 297.968 412.23 297.759 412.309 297.56C412.457 297.558 412.603 297.601 412.734 297.683C412.866 297.765 412.979 297.885 413.065 298.032C413.269 298.414 413.349 298.875 413.29 299.326Z" fill="#464353"/>
<path d="M427.66 260.555V256.961C427.659 254.315 426.798 251.778 425.267 249.907C423.736 248.036 421.659 246.985 419.494 246.985H303.334C301.168 246.985 299.092 248.036 297.56 249.907C296.029 251.778 295.169 254.315 295.168 256.961V263.588L427.66 260.555Z" fill="#33323D"/>
<path d="M451.444 374.544H276.557C276.249 374.544 276 374.385 276 374.187C276 373.989 276.249 373.829 276.556 373.829H451.443C451.751 373.829 452 373.988 452 374.187C452 374.385 451.752 374.544 451.444 374.544Z" fill="#E6E6E6"/>
<path d="M430.797 265.353V365.196C430.796 367.486 430.051 369.682 428.726 371.301C427.401 372.92 425.604 373.829 423.73 373.829H302.238C300.365 373.828 298.568 372.918 297.244 371.3C295.92 369.681 295.176 367.485 295.176 365.196V255.285C298.657 256.862 298.657 256.862 302.238 256.732H423.729C425.601 256.731 427.397 257.639 428.722 259.256C430.048 260.872 430.793 263.066 430.796 265.354L430.797 265.353Z" fill="#5F9EA0"/>
<path d="M407.018 323.612C409.831 323.612 412.112 320.825 412.112 317.387C412.112 313.949 409.831 311.162 407.018 311.162C404.205 311.162 401.924 313.949 401.924 317.387C401.924 320.825 404.205 323.612 407.018 323.612Z" fill="#6C63FF"/>
<path d="M451 325.985H439V327.985H451V325.985Z" fill="white"/>
<path d="M425.641 348.984C424.836 348.981 424.035 348.853 423.256 348.604L423.103 348.552L422.96 348.464C417.811 345.283 413.467 341.081 410.048 335.975C407.218 331.724 405.012 326.897 403.529 321.711C401.755 315.503 400.901 308.952 401.009 302.371C401.011 302.233 401.013 302.127 401.013 302.053C401.013 298.854 402.454 296.047 404.684 294.902C406.391 294.026 421.889 286.183 423.009 285.616C425.118 284.314 427.367 285.401 427.728 285.591C428.535 285.998 442.862 293.218 445.958 295.034C449.149 296.906 450 300.27 450 301.962C450 309.622 448.923 316.782 446.8 323.241C445.085 328.47 442.654 333.297 439.613 337.512C433.747 345.646 427.879 348.53 427.822 348.555C427.121 348.853 426.383 348.998 425.641 348.984ZM424.261 344.773C424.77 344.913 425.941 345.124 426.705 344.781C427.674 344.345 432.586 341.207 437.176 334.843C443.517 326.05 446.734 314.997 446.739 301.99C446.728 301.727 446.576 299.847 444.556 298.662C441.52 296.881 426.628 289.378 426.478 289.302L426.437 289.281C426.125 289.12 425.132 288.78 424.447 289.222L424.31 289.301C424.144 289.385 407.693 297.71 405.939 298.611C404.711 299.241 404.274 300.802 404.274 302.053C404.274 302.145 404.272 302.277 404.269 302.449C404.129 311.349 405.801 333.249 424.261 344.773Z" fill="#3F3D56"/>
<path d="M423.452 287.853C424.087 287.445 424.797 287.434 425.387 287.546C425.679 287.601 425.93 287.686 426.106 287.756C426.194 287.791 426.264 287.821 426.309 287.843C426.331 287.853 426.347 287.861 426.357 287.866L426.367 287.872L426.374 287.875L426.384 287.88C426.386 287.881 426.389 287.883 426.393 287.885C426.4 287.888 426.411 287.893 426.425 287.9C426.454 287.915 426.496 287.937 426.552 287.965C426.663 288.021 426.827 288.103 427.037 288.208C427.457 288.419 428.06 288.722 428.794 289.092C430.261 289.831 432.25 290.835 434.337 291.896C438.519 294.024 443.069 296.368 444.618 297.272C446.061 298.115 446.78 299.289 447.141 300.258C447.322 300.744 447.411 301.176 447.456 301.485C447.478 301.64 447.49 301.762 447.495 301.844C447.498 301.885 447.498 301.915 447.499 301.935C447.499 301.944 447.5 301.95 447.5 301.954V301.956C447.5 334.054 427.981 345.59 426.57 346.221C425.917 346.513 425.126 346.523 424.458 346.441C424.131 346.401 423.847 346.34 423.646 346.29C423.547 346.265 423.468 346.242 423.416 346.227C423.408 346.224 423.4 346.222 423.393 346.22C412.318 339.392 407.095 328.933 404.641 319.867C402.182 310.786 402.516 303.15 402.516 302.047C402.516 299.955 403.37 297.989 404.926 297.194C405.819 296.738 410.438 294.41 414.836 292.194C417.034 291.087 419.177 290.008 420.77 289.206C421.566 288.805 422.226 288.473 422.686 288.241C422.916 288.125 423.096 288.034 423.219 287.973C423.28 287.942 423.327 287.918 423.358 287.902C423.374 287.894 423.387 287.889 423.395 287.885C423.399 287.883 423.401 287.881 423.403 287.88L423.405 287.879H423.406L423.43 287.867L423.452 287.853Z" fill="#5F9EA0" stroke="black"/>
<path opacity="0.2" d="M425 294.985V339.985C425 339.985 442.151 330.011 441.999 303.788L425 294.985Z" fill="black"/>
<path d="M204.488 118.38C197.743 146.589 170.339 163.757 143.279 156.722C116.23 149.689 99.7639 121.117 106.513 92.9096C113.255 64.6974 140.659 47.5282 167.711 54.5611C194.769 61.594 211.234 90.1699 204.488 118.38Z" fill="#EE9A34"/>
<path d="M177.768 98.1407C178.773 91.1341 173.656 87.3676 166.66 84.8549L168.929 75.3636L163.388 73.9238L161.178 83.1649C159.722 82.7864 158.225 82.4294 156.739 82.0756L158.964 72.7736L153.426 71.3337L151.155 80.8217C149.949 80.5354 148.765 80.2524 147.616 79.9545L147.622 79.9249L139.98 77.9355L138.506 84.1061C138.506 84.1061 142.618 85.0884 142.531 85.1493C144.775 85.7335 145.181 87.2819 145.113 88.5095L142.528 99.3221C142.682 99.3632 142.883 99.4225 143.104 99.5146C142.919 99.4669 142.722 99.4143 142.518 99.3632L138.894 114.51C138.62 115.221 137.924 116.287 136.355 115.882C136.41 115.966 132.327 114.834 132.327 114.834L129.576 121.448L136.787 123.322C138.129 123.672 139.444 124.039 140.738 124.385L138.445 133.985L143.98 135.425L146.251 125.927C147.763 126.355 149.231 126.749 150.667 127.121L148.404 136.575L153.945 138.015L156.238 128.433C165.687 130.297 172.793 129.545 175.784 120.635C178.194 113.46 175.664 109.322 170.692 106.623C174.313 105.753 177.04 103.27 177.768 98.1407ZM165.107 116.651C163.394 123.825 151.808 119.947 148.052 118.974L151.095 106.256C154.851 107.234 166.897 109.169 165.107 116.651ZM166.821 98.037C165.258 104.563 155.615 101.247 152.487 100.434L155.246 88.8995C158.374 89.7123 168.448 91.2295 166.821 98.037Z" fill="white"/>
<path d="M107 348.985L59 410.833L106.897 432.985L107 348.985Z" fill="#8C8C8C"/>
<path d="M59 410.965L107 393.985L106.941 432.985L59 410.965Z" fill="#33323D"/>
<path d="M107 348.985L154 410.833L107.102 432.985L107 348.985Z" fill="#333333"/>
<path d="M154 410.965L107 393.985L107.057 432.985L154 410.965Z" fill="#33323D"/>
<path d="M59 417.985L107 469.985V439.84L59 417.985Z" fill="#8C8C8C"/>
<path d="M154 417.985L107 469.985V439.84L154 417.985Z" fill="#333333"/>
<path d="M667.937 281.065C669.269 281.246 670.65 281.361 671.925 280.922C672.126 280.856 672.347 280.709 672.327 280.496C672.312 280.418 672.281 280.345 672.236 280.283C671.756 279.517 671.352 278.701 671.032 277.846C671.019 277.801 670.993 277.762 670.957 277.735C670.916 277.719 670.87 277.719 670.829 277.735C670.241 277.899 669.732 278.303 669.148 278.475C668.85 278.562 668.539 278.587 668.233 278.548C667.968 278.516 667.605 278.284 667.365 278.314C667.502 279.245 667.835 280.114 667.937 281.065Z" fill="#6C63FF"/>
<path d="M693.114 278.705C693.991 278.065 694.9 277.393 695.419 276.406C695.455 276.347 695.477 276.279 695.481 276.209C695.472 276.139 695.446 276.073 695.406 276.017C694.913 275.184 694.278 274.456 693.533 273.87C693.145 274.161 692.794 274.505 692.489 274.893C692.268 275.14 691.658 275.533 691.652 275.91C691.652 276.123 691.885 276.371 691.994 276.55C692.14 276.78 692.279 277.015 692.412 277.253C692.487 277.371 693.184 278.658 693.114 278.705Z" fill="#6C63FF"/>
<path d="M673.157 283.92C673.172 284.14 673.116 284.358 672.996 284.538C672.902 284.638 672.786 284.712 672.659 284.751C670.798 285.459 668.643 284.577 666.786 285.274C666.405 285.417 666.042 285.624 665.66 285.76C665.202 285.906 664.731 285.995 664.254 286.024C663.598 286.091 662.937 286.133 662.279 286.152C661.778 286.19 661.275 286.143 660.789 286.014C660.545 285.947 660.318 285.827 660.121 285.661C659.924 285.496 659.762 285.288 659.646 285.051C659.545 284.839 659.525 284.594 659.59 284.367C659.619 284.289 659.661 284.217 659.713 284.154C659.838 284.004 659.986 283.876 660.15 283.776L660.835 283.307C661.156 283.066 661.505 282.87 661.873 282.723C662.144 282.629 662.431 282.589 662.706 282.51C663.668 282.212 664.403 281.401 665.086 280.623L666.017 279.568C666.104 279.452 666.215 279.358 666.34 279.293C666.47 279.247 666.607 279.234 666.742 279.253C667.647 279.321 668.521 279.632 669.282 280.157C669.477 280.312 669.687 280.443 669.909 280.549C670.456 280.775 671.156 280.605 671.66 280.319C671.899 280.182 671.846 280.106 671.947 279.863C672.048 279.619 672.293 279.464 672.505 279.686C672.569 279.762 672.615 279.855 672.638 279.954C672.838 280.658 672.762 281.415 672.762 282.152C672.756 282.268 672.77 282.383 672.802 282.493C672.854 282.605 672.915 282.71 672.985 282.809C672.999 282.835 673.012 282.862 673.023 282.89C673.146 283.217 673.192 283.57 673.158 283.92L673.157 283.92Z" fill="#514E7F"/>
<path d="M673.156 283.92C673.171 284.139 673.115 284.358 672.995 284.538C672.901 284.638 672.785 284.711 672.658 284.751C670.797 285.459 668.642 284.576 666.785 285.274C666.403 285.417 666.041 285.623 665.659 285.76C665.201 285.906 664.73 285.994 664.253 286.024C663.597 286.09 662.936 286.133 662.278 286.152C661.777 286.189 661.274 286.143 660.788 286.013C660.544 285.947 660.317 285.827 660.12 285.661C659.923 285.495 659.761 285.287 659.645 285.051C659.544 284.839 659.523 284.594 659.587 284.367C659.617 284.289 659.658 284.217 659.71 284.154C659.818 284.395 659.896 284.714 659.966 284.829C660.058 285 660.183 285.147 660.334 285.262C660.484 285.377 660.655 285.457 660.837 285.496C661.109 285.513 661.381 285.476 661.64 285.387C663.327 284.943 665.12 284.937 666.74 284.266C667.296 284.033 667.826 283.724 668.41 283.583C668.994 283.443 669.615 283.481 670.217 283.428C671.169 283.347 672.091 283.042 673.028 282.882C673.149 283.211 673.193 283.567 673.155 283.918L673.156 283.92Z" fill="#464353"/>
<path d="M697.376 278.575C697.288 279.326 696.84 279.971 696.348 280.52C695.857 281.068 695.3 281.56 694.909 282.191C694.427 282.973 694.21 283.943 693.584 284.604C693.344 284.845 693.073 285.049 692.781 285.212C692.453 285.417 692.107 285.586 691.747 285.717C690.811 286.035 689.803 285.962 688.826 285.885C688.508 285.882 688.194 285.818 687.898 285.695C687.763 285.623 687.634 285.539 687.512 285.444C687.267 285.284 687.061 285.065 686.91 284.804C686.836 284.663 686.815 284.497 686.852 284.34C686.907 284.167 687.003 284.011 687.131 283.888C687.351 283.645 687.587 283.419 687.837 283.212C688.181 282.977 688.491 282.689 688.758 282.359C688.921 282.098 689.041 281.81 689.113 281.506C689.255 280.974 689.342 280.427 689.372 279.875C689.371 279.509 689.407 279.143 689.478 278.784C689.627 278.221 690.021 277.718 689.976 277.136C689.958 277.053 689.965 276.965 689.996 276.886C690.043 276.825 690.108 276.782 690.181 276.765C690.488 276.635 690.811 276.555 691.141 276.528C691.306 276.516 691.472 276.543 691.626 276.607C691.78 276.671 691.919 276.771 692.032 276.899C692.169 277.073 692.259 277.325 692.46 277.392C692.559 277.421 692.664 277.425 692.765 277.405C693.259 277.352 693.781 277.285 694.171 276.947C694.351 276.775 694.495 276.566 694.595 276.333C694.696 276.099 694.749 275.846 694.753 275.589C694.753 275.395 694.671 275.193 694.954 275.163C695.167 275.133 695.335 275.376 695.444 275.525C695.835 276.082 696.237 276.664 696.383 277.342C696.44 277.318 696.501 277.306 696.562 277.305C696.687 277.304 696.811 277.335 696.922 277.396C697.034 277.456 697.13 277.544 697.203 277.653C697.362 277.928 697.424 278.255 697.377 278.574L697.376 278.575Z" fill="#514E7F"/>
<path d="M697.377 278.575C697.288 279.326 696.84 279.972 696.349 280.52C695.857 281.068 695.301 281.56 694.909 282.191C694.427 282.974 694.21 283.943 693.584 284.605C693.344 284.845 693.074 285.049 692.781 285.212C692.454 285.417 692.107 285.587 691.747 285.717C690.811 286.035 689.804 285.963 688.826 285.886C688.508 285.882 688.194 285.818 687.898 285.696C687.763 285.623 687.635 285.539 687.513 285.444C687.267 285.284 687.061 285.065 686.91 284.805C687.098 284.709 687.304 284.656 687.513 284.651C687.946 284.676 688.264 285.112 688.679 285.246C689.271 285.436 689.862 284.992 690.462 284.841C690.854 284.742 691.265 284.768 691.653 284.628C691.976 284.495 692.274 284.303 692.534 284.06C692.891 283.79 693.208 283.466 693.476 283.098C693.698 282.729 693.884 282.337 694.028 281.927C694.345 281.142 694.718 280.384 695.144 279.659C695.207 279.544 695.283 279.438 695.371 279.343C695.468 279.258 695.571 279.179 695.678 279.107C696.079 278.786 696.246 278.254 696.387 277.734C696.425 277.576 696.478 277.422 696.545 277.275C696.67 277.274 696.794 277.305 696.905 277.366C697.017 277.426 697.113 277.514 697.186 277.623C697.358 277.904 697.426 278.244 697.377 278.575Z" fill="#464353"/>
<path d="M664.645 244.457C664.91 245.522 664.526 246.644 664.213 247.699C663.742 249.289 663.42 250.924 663.254 252.581C663.233 253.003 663.153 253.419 663.017 253.815C662.868 254.171 662.615 254.472 662.442 254.811C661.969 255.702 661.981 256.789 662.083 257.808C662.151 258.48 662.254 259.149 662.38 259.81C662.535 260.618 662.726 261.463 662.503 262.251C662.876 262.163 663.13 262.677 663.105 263.08C663.08 263.483 662.959 263.933 663.142 264.281C663.603 264.46 663.606 265.133 663.593 265.656C663.601 266.561 663.709 267.463 663.915 268.342C664.613 271.909 665.355 275.467 666.139 279.014C667.836 279.573 669.818 280.155 671.436 279.381C671.593 279.325 671.735 279.231 671.851 279.107C671.967 278.983 672.055 278.832 672.107 278.665C672.124 278.479 672.102 278.291 672.042 278.115L671.275 275.152C671.09 274.436 670.902 273.696 671 272.96C671.075 272.412 671.299 271.822 671.047 271.338C670.961 271.171 670.824 271.042 670.723 270.884C670.322 270.259 670.533 269.423 670.565 268.667C670.577 268.497 670.567 268.326 670.533 268.159C670.478 267.965 670.401 267.778 670.304 267.603C669.67 266.296 669.366 264.837 669.421 263.369C669.445 263.181 669.421 262.991 669.351 262.817C669.302 262.745 669.259 262.669 669.22 262.591C669.19 262.454 669.205 262.31 669.262 262.183C669.032 261.998 668.825 261.783 668.644 261.544C668.755 261.47 668.85 261.371 668.919 261.253C668.989 261.135 669.033 261.002 669.047 260.864C669.062 260.725 669.046 260.585 669.002 260.454C668.958 260.323 668.886 260.204 668.792 260.107C668.874 260.089 668.95 260.048 669.011 259.988C669.072 259.927 669.116 259.85 669.139 259.764C669.161 259.679 669.16 259.589 669.137 259.503C669.114 259.418 669.069 259.342 669.007 259.282C668.909 259.209 668.778 259.177 668.708 259.069C668.6 258.911 668.688 258.691 668.776 258.523L669.244 257.625C669.593 256.959 669.672 256.133 670.047 255.493C670.555 254.542 670.97 253.537 671.284 252.496L672.635 248.537L673.545 249.376C673.848 249.622 674.102 249.929 674.292 250.28C674.421 250.627 674.503 250.991 674.535 251.363C674.868 253.512 676.141 255.375 676.613 257.492C676.717 257.963 676.788 258.458 677.043 258.861C677.134 258.984 677.216 259.116 677.288 259.253C677.354 259.463 677.389 259.682 677.39 259.903C677.432 260.336 677.562 260.755 677.769 261.13C677.977 261.505 678.259 261.828 678.595 262.078C679.042 262.404 679.599 262.628 679.842 263.144C679.89 263.303 679.958 263.456 680.042 263.598C680.259 263.875 680.727 263.907 680.819 264.254C680.872 264.448 680.775 264.681 680.878 264.851C680.936 264.93 681.013 264.991 681.1 265.028L682.408 265.721C683.869 266.497 684.616 268.28 685.695 269.578C686.067 270.001 686.397 270.464 686.678 270.96C687.143 271.845 687.359 272.955 688.146 273.518C688.357 273.634 688.55 273.785 688.716 273.966C688.963 274.311 688.873 274.795 688.895 275.23C688.917 275.665 689.23 276.183 689.62 276.051C689.483 276.578 689.483 277.134 689.62 277.661C691.329 277.567 692.959 276.865 694.248 275.669C694.629 275.315 694.997 274.864 695.001 274.326C695.007 274.234 694.987 274.141 694.945 274.06C694.867 273.955 694.766 273.873 694.649 273.823C693.427 273.12 693.059 271.489 692.441 270.165C691.901 268.997 691.102 267.99 690.433 266.905C688.98 264.571 687.988 261.746 685.789 260.205C685.305 259.865 684.743 259.565 684.5 259.004C684.366 258.691 684.35 258.333 684.243 258.009C684.137 257.685 683.882 257.369 683.557 257.369C683.738 256.9 683.701 256.329 683.713 255.821C683.726 255.596 683.701 255.371 683.641 255.155C683.558 254.922 683.449 254.7 683.318 254.494C682.744 253.463 682.457 252.28 682.491 251.083C682.507 250.466 682.609 249.832 682.434 249.243C682.346 248.947 682.191 248.676 682.086 248.39C681.925 247.873 681.841 247.332 681.835 246.786L681.714 244.738C681.696 244.056 681.613 243.377 681.465 242.713C681.064 241.122 680.662 234.46 679.287 233.71C677.912 232.959 675.548 238.086 674 238.187C673.315 238.217 672.639 238.355 671.992 238.598C670.962 239.007 670.099 239.77 669.258 240.517L666.41 243.056C665.807 243.582 665.309 244.086 664.645 244.457Z" fill="#464353"/>
<path d="M631.552 236.914C631.552 236.914 631.271 255.432 634.362 261.525C637.454 267.618 638.78 294.124 638.78 294.124C638.78 294.124 671.194 297.684 693.783 289.861C716.371 282.037 764.435 278.835 764.435 278.835L756.335 220.872C756.335 220.872 716.321 218.148 693.558 229.674C670.795 241.201 631.552 236.914 631.552 236.914Z" fill="#8DD070"/>
<path d="M631.552 236.914C631.552 236.914 631.271 255.432 634.362 261.525C637.454 267.618 638.78 294.124 638.78 294.124C638.78 294.124 671.194 297.684 693.783 289.861C716.371 282.037 764.435 278.835 764.435 278.835L756.335 220.872C756.335 220.872 716.321 218.148 693.558 229.674C670.795 241.201 631.552 236.914 631.552 236.914Z" fill="#5F9EA0"/>
<path d="M638.727 243.678C638.727 243.678 637.713 258.958 640.257 263.84C642.801 268.723 642.919 290.517 642.919 290.517C642.919 290.517 672.091 291.954 692.842 284.454C713.593 276.954 757.2 272.09 757.2 272.09L752.245 224.686C752.245 224.686 716.163 224.291 695.105 234.849C674.047 245.406 638.727 243.678 638.727 243.678Z" fill="#E6E6E6"/>
<path opacity="0.1" d="M694.783 275.774C698.934 275.225 701.399 267.118 700.291 257.665C699.182 248.213 694.918 240.996 690.767 241.545C686.617 242.094 684.151 250.201 685.26 259.653C686.369 269.105 690.632 276.323 694.783 275.774Z" fill="black"/>
<path d="M619.686 245.911C619.686 245.911 624.767 263.627 629.466 268.419C634.164 273.212 643.087 298.008 643.087 298.008C643.087 298.008 674.97 290.834 694.207 276.022C713.444 261.209 758.269 242.509 758.269 242.509L733.812 189.985C733.812 189.985 694.94 200.432 676.608 218.819C658.277 237.206 619.686 245.911 619.686 245.911Z" fill="#8DD070"/>
<path d="M619.686 245.911C619.686 245.911 624.767 263.627 629.466 268.419C634.164 273.212 643.087 298.008 643.087 298.008C643.087 298.008 674.97 290.834 694.207 276.022C713.444 261.209 758.269 242.509 758.269 242.509L733.812 189.985C733.812 189.985 694.94 200.432 676.608 218.819C658.277 237.206 619.686 245.911 619.686 245.911Z" fill="#5F9EA0"/>
<path d="M628.461 250.012C628.461 250.012 631.912 264.886 635.745 268.702C639.578 272.518 645.986 293.219 645.986 293.219C645.986 293.219 674.164 285.079 691.747 271.18C709.329 257.28 749.43 238.462 749.43 238.462L731.016 194.946C731.016 194.946 696.563 206.324 679.571 223.234C662.578 240.144 628.461 250.012 628.461 250.012Z" fill="#E6E6E6"/>
<path d="M691.097 262.295C694.889 260.42 694.893 251.9 691.106 243.265C687.319 234.63 681.175 229.15 677.383 231.025C673.591 232.9 673.588 241.419 677.375 250.054C681.162 258.689 687.306 264.169 691.097 262.295Z" fill="#5F9EA0"/>
<path d="M774.412 333.985H589.589C589.264 333.985 589 333.867 589 333.722C589 333.576 589.263 333.458 589.588 333.458H774.411C774.736 333.458 775 333.576 775 333.722C775 333.867 774.738 333.985 774.412 333.985Z" fill="#E6E6E6"/>
</svg>
